<svg width="16" height="16" viewBox="0 0 16 16" fill="none" xmlns="http://www.w3.org/2000/svg">
<g clip-path="url(#clip0_1925_5074)">
<path d="M9.44761 0.0883789C7.77208 0.0883789 6.24177 0.72088 5.08203 1.75927C5.33927 2.1683 5.4854 2.6442 5.49914 3.13543L5.4992 3.13686L5.49925 3.13829C5.50509 3.35964 5.51831 3.58104 5.53726 3.8021C6.41692 2.59337 7.84163 1.80558 9.44761 1.80558C12.1133 1.80558 14.282 3.97428 14.282 6.64C14.282 9.27761 12.1586 11.4272 9.53147 11.4723C9.77136 11.6728 10.019 11.8638 10.2742 12.0432L10.2754 12.0441L10.2766 12.0449C10.624 12.29 10.907 12.6113 11.1056 12.9789C13.9179 12.2427 15.9992 9.67995 15.9992 6.64C15.9992 3.02742 13.0603 0.0883789 9.44761 0.0883789Z" fill="#585858"/>
<path d="M9.28757 13.4481C8.5391 12.8506 8.07213 12.4528 7.40386 11.8337C7.20724 11.6516 6.96694 11.5381 6.72018 11.5381C6.53135 11.5381 6.34486 11.5983 6.19134 11.7243C6.0329 11.8576 5.87446 11.991 5.71597 12.1243C4.42812 10.5938 3.47182 8.81042 2.90966 6.89082C3.1084 6.83266 3.30719 6.77445 3.50593 6.71629C3.94393 6.58218 4.14999 6.11459 4.08571 5.64585C3.94588 4.62561 3.86992 4.11875 3.78337 3.18351C3.73901 2.70412 3.41996 2.2877 2.96267 2.2628C2.89134 2.25588 2.82008 2.25244 2.74939 2.25244C1.04879 2.25244 -0.431893 4.22355 0.115836 6.63496C0.797392 9.62128 2.27287 12.3729 4.38313 14.5931C5.24757 15.5007 6.30657 15.9117 7.26299 15.9117C8.27196 15.9117 9.16685 15.4546 9.60027 14.6412C9.83261 14.2465 9.66386 13.7485 9.28757 13.4481Z" fill="#585858"/>
<path d="M7.47861 6.76116C7.02573 7.18136 6.7294 7.51175 6.5729 7.77105C6.46243 7.95393 6.38184 8.14728 6.33324 8.34573C6.3104 8.43915 6.33141 8.53611 6.39088 8.61184C6.45029 8.68746 6.53947 8.73084 6.63564 8.73084H8.7969C9.0617 8.73084 9.27715 8.51539 9.27715 8.2506C9.27715 7.98581 9.0617 7.77036 8.7969 7.77036H7.82091C7.82886 7.76097 7.83705 7.75158 7.8454 7.74214C7.90917 7.67036 8.06532 7.52039 8.30945 7.29653C8.56548 7.06156 8.73835 6.8856 8.83789 6.75859C8.98791 6.56763 9.09953 6.3812 9.16954 6.20456C9.24091 6.02454 9.27715 5.83262 9.27715 5.63405C9.27715 5.27779 9.14813 4.97539 8.8937 4.7351C8.64092 4.49675 8.29296 4.37598 7.85931 4.37598C7.46527 4.37598 7.13059 4.47912 6.86465 4.68255C6.70421 4.80539 6.58069 4.97556 6.49746 5.1885C6.44125 5.33234 6.45579 5.49691 6.53638 5.62861C6.61698 5.76038 6.75687 5.84824 6.91056 5.86358C6.92768 5.8653 6.94473 5.86616 6.96156 5.86616C7.17787 5.86616 7.37077 5.72861 7.44163 5.52392C7.46384 5.45976 7.49321 5.40876 7.52904 5.37224C7.60448 5.29536 7.70608 5.25793 7.83974 5.25793C7.97557 5.25793 8.07705 5.2933 8.14986 5.36606C8.2225 5.43869 8.25782 5.54464 8.25782 5.69003C8.25782 5.82506 8.20956 5.96587 8.11443 6.10869C8.06343 6.18344 7.911 6.35831 7.47861 6.76116Z" fill="#585858"/>
<path d="M11.8054 4.37598H11.4444C11.3415 4.37598 11.2454 4.42669 11.1874 4.51164L9.51783 6.95566C9.46912 7.02698 9.44336 7.11038 9.44336 7.19676V7.5928C9.44336 7.76435 9.58297 7.90396 9.75452 7.90396H11.1251V8.2352C11.1251 8.50852 11.3475 8.7309 11.6208 8.7309C11.8941 8.7309 12.1165 8.50852 12.1165 8.2352V7.90396H12.166C12.42 7.90396 12.6266 7.69732 12.6266 7.44335C12.6266 7.18937 12.42 6.98274 12.166 6.98274H12.1165V4.68713C12.1165 4.51558 11.9769 4.37598 11.8054 4.37598ZM11.1252 6.98274H10.51L11.1252 6.06816V6.98274Z" fill="#585858"/>
</g>
<defs>
<clipPath id="clip0_1925_5074">
<rect width="16" height="16" fill="white"/>
</clipPath>
</defs>
</svg>
