<svg width="16" height="16" viewBox="0 0 16 16" fill="none" xmlns="http://www.w3.org/2000/svg">
<g clip-path="url(#clip0_1925_5054)">
<path d="M15.8778 13.6935L13.8352 11.991C13.7338 11.9069 13.5918 11.8882 13.4733 11.944C13.3532 11.9998 13.2772 12.1207 13.2772 12.2521V13.2734H2.72405V2.72019H3.74464C3.74703 2.71951 3.74975 2.71951 3.75145 2.72019C3.94005 2.72019 4.09222 2.56802 4.09222 2.37977C4.09222 2.27526 4.04524 2.18164 3.97137 2.119L2.3043 0.119344C2.1746 -0.0355496 1.91077 -0.0355496 1.78107 0.119344L0.0789419 2.1619C-0.00582404 2.26334 -0.0238666 2.40462 0.0323036 2.52411C0.0881334 2.64394 0.208644 2.72019 0.340048 2.72019H1.36167V13.9542C1.36167 14.3301 1.66635 14.6351 2.04252 14.6351H13.2766V15.6564C13.2766 15.7888 13.3532 15.9086 13.4726 15.9644C13.5189 15.9855 13.5676 15.9968 13.6173 15.9968C13.6953 15.9968 13.7726 15.9699 13.8352 15.9185L15.8778 14.216C15.9557 14.1513 16 14.0553 16 13.9542C16 13.8535 15.9554 13.7578 15.8778 13.6935Z" fill="#585858"/>
<path d="M3.74414 10.5504C3.74414 11.1142 4.20167 11.5714 4.76576 11.5714H11.5743C12.1384 11.5714 12.5955 11.1142 12.5955 10.5504C12.5955 9.986 12.1384 9.52881 11.5743 9.52881H4.76576C4.20167 9.52881 3.74414 9.986 3.74414 10.5504Z" fill="#585858"/>
<path d="M4.76576 8.84773H8.17001C8.73444 8.84773 9.19129 8.39054 9.19129 7.82645C9.19129 7.26237 8.7341 6.80518 8.17001 6.80518H4.76576C4.20167 6.80518 3.74414 7.26237 3.74414 7.82645C3.74414 8.39054 4.20167 8.84773 4.76576 8.84773Z" fill="#585858"/>
<path d="M3.74414 5.10306C3.74414 5.66715 4.20167 6.12434 4.76576 6.12434H9.87214C10.4362 6.12434 10.8934 5.66715 10.8934 5.10306C10.8934 4.53864 10.4362 4.08179 9.87214 4.08179H4.76576C4.20167 4.08179 3.74414 4.53864 3.74414 5.10306Z" fill="#585858"/>
</g>
<defs>
<clipPath id="clip0_1925_5054">
<rect width="16" height="16.0003" fill="white" transform="translate(0 -0.000244141)"/>
</clipPath>
</defs>
</svg>
