<svg width="40" height="40" viewBox="0 0 40 40" fill="none" xmlns="http://www.w3.org/2000/svg">
<g clip-path="url(#clip0_1334_6927)">
<path d="M16.25 27.5C19.0114 27.5 21.25 25.2614 21.25 22.5C21.25 19.7386 19.0114 17.5 16.25 17.5C13.4886 17.5 11.25 19.7386 11.25 22.5C11.25 25.2614 13.4886 27.5 16.25 27.5Z" stroke="#585858" stroke-width="2.5" stroke-linecap="round" stroke-linejoin="round"/>
<path d="M8.34375 32.5C9.05326 31.0037 10.1728 29.7394 11.5724 28.8541C12.9719 27.9688 14.594 27.4988 16.25 27.4988C17.906 27.4988 19.5281 27.9688 20.9276 28.8541C22.3272 29.7394 23.4467 31.0037 24.1563 32.5H33.75C34.0815 32.5 34.3995 32.3683 34.6339 32.1339C34.8683 31.8995 35 31.5815 35 31.25V8.75C35 8.41848 34.8683 8.10054 34.6339 7.86612C34.3995 7.6317 34.0815 7.5 33.75 7.5H6.25C5.91848 7.5 5.60054 7.6317 5.36612 7.86612C5.1317 8.10054 5 8.41848 5 8.75V31.25C5 31.5815 5.1317 31.8995 5.36612 32.1339C5.60054 32.3683 5.91848 32.5 6.25 32.5H8.34375Z" stroke="#585858" stroke-width="2.5" stroke-linecap="round" stroke-linejoin="round"/>
<path d="M27.5 27.5H30V12.5H10V15" stroke="#585858" stroke-width="2.5" stroke-linecap="round" stroke-linejoin="round"/>
</g>
<defs>
<clipPath id="clip0_1334_6927">
<rect width="40" height="40" fill="white"/>
</clipPath>
</defs>
</svg>
