<svg width="40" height="40" viewBox="0 0 40 40" fill="none" xmlns="http://www.w3.org/2000/svg">
<g clip-path="url(#clip0_1413_8980)">
<path d="M21.6663 3.33325V16.6666H34.9997C34.9997 9.29992 29.033 3.33325 21.6663 3.33325ZM24.9997 13.3333V7.23325C27.833 8.23325 30.083 10.4833 31.0997 13.3333H24.9997ZM10.733 18.3333L9.14967 14.9999H3.33301V18.3333H7.03301C7.03301 18.3333 10.183 25.1166 10.5663 25.6999C8.73301 26.6833 7.49967 28.6166 7.49967 30.8333C7.49967 34.0499 10.1163 36.6666 13.333 36.6666C16.2663 36.6666 18.6997 34.4999 19.0997 31.6666H22.5663C22.9663 34.4999 25.3997 36.6666 28.333 36.6666C31.5497 36.6666 34.1663 34.0499 34.1663 30.8333C34.1663 29.0999 33.3997 27.5499 32.1997 26.4833C33.9497 24.2333 34.9997 21.3999 34.9997 18.3333H10.733ZM13.333 33.3333C11.9497 33.3333 10.833 32.2166 10.833 30.8333C10.833 29.4499 11.9497 28.3333 13.333 28.3333C14.7163 28.3333 15.833 29.4499 15.833 30.8333C15.833 32.2166 14.7163 33.3333 13.333 33.3333ZM28.333 33.3333C26.9497 33.3333 25.833 32.2166 25.833 30.8333C25.833 29.4499 26.9497 28.3333 28.333 28.3333C29.7163 28.3333 30.833 29.4499 30.833 30.8333C30.833 32.2166 29.7163 33.3333 28.333 33.3333ZM29.5663 24.4333L29.083 25.0499C28.8497 25.0166 28.583 24.9999 28.333 24.9999C26.0163 24.9999 23.9997 26.3666 23.0663 28.3333H18.5997C17.7663 26.5999 16.0997 25.3333 14.133 25.0499L13.3997 23.9333C13.233 23.6499 12.833 22.7833 12.283 21.6666H31.0997C30.7497 22.6499 30.233 23.5833 29.5663 24.4333Z" fill="#585858"/>
</g>
<defs>
<clipPath id="clip0_1413_8980">
<rect width="40" height="40" fill="white"/>
</clipPath>
</defs>
</svg>
